<?xml version="1.0" encoding="UTF-8"?>
<!-- Generator: visioncortex VTracer 0.6.12 -->
<svg version="1.1" xmlns="http://www.w3.org/2000/svg" width="640" height="640" viewBox="0 0 640 640">
<circle cx="320.0" cy="320.0" r="320.0" fill="#ffffff"/>

<path d="M0 0 C1.08 0.21 2.16 0.42 3.27 0.63 C9.57 1.88 15.79 3.34 22 5 C22.79 5.21 23.58 5.41 24.4 5.63 C45.68 11.28 66.65 19.49 86 30 C86.79 30.42 87.59 30.85 88.4 31.28 C98.62 36.72 108.55 42.3 118 49 C119.16 49.81 120.32 50.62 121.48 51.43 C133.02 59.54 143.79 68.43 154.44 77.65 C155.76 78.79 157.09 79.92 158.43 81.04 C162.36 84.38 165.76 87.9 169.09 91.84 C171.27 94.3 173.58 96.58 175.94 98.88 C180.73 103.64 184.91 108.62 189 114 C189.53 114.69 190.07 115.38 190.61 116.09 C223.23 158.27 245.32 206.52 255 259 C255.21 260.08 255.42 261.15 255.63 262.27 C267.69 326.61 257.02 400.29 226.04 458.03 C224.9 460.19 223.8 462.37 222.7 464.56 C216.93 475.96 210.38 486.57 203 497 C202.44 497.79 201.89 498.58 201.31 499.39 C193.84 509.9 185.95 519.88 177.35 529.49 C175.59 531.46 173.89 533.48 172.19 535.5 C169.42 538.67 166.38 541.36 163.18 544.08 C160.63 546.33 158.26 548.71 155.88 551.12 C152.39 554.64 148.97 558.03 145 561 C144.34 561 143.68 561 143 561 C143 561.66 143 562.32 143 563 C141.26 564.46 139.46 565.85 137.62 567.19 C137.07 567.59 136.52 567.99 135.96 568.41 C134.31 569.61 132.66 570.81 131 572 C130.2 572.58 129.4 573.16 128.57 573.76 C110.36 586.75 91.35 597.72 71.03 607.06 C69.39 607.82 67.75 608.6 66.12 609.39 C1.8 640.22 -75.82 642.42 -144 625 C-144.88 624.78 -145.75 624.55 -146.65 624.32 C-167.88 618.74 -188.67 610.37 -208 600 C-209.16 599.41 -210.32 598.83 -211.52 598.22 C-229.98 588.84 -247.04 577.14 -263 564 C-263.65 563.47 -264.3 562.93 -264.97 562.38 C-272.04 556.53 -278.74 550.48 -285.11 543.86 C-287 542 -287 542 -289 541 C-289 540.34 -289 539.68 -289 539 C-289.66 539 -290.32 539 -291 539 C-292.41 537.6 -292.41 537.6 -294.06 535.62 C-296.68 532.53 -299.36 529.53 -302.12 526.56 C-308.56 519.42 -314.27 511.71 -320 504 C-320.47 503.38 -320.93 502.75 -321.41 502.11 C-341.11 475.57 -355.78 445.35 -366 414 C-366.15 413.54 -366.15 413.54 -366.92 411.2 C-371.23 397.93 -374.59 384.73 -377 371 C-377.2 369.92 -377.4 368.84 -377.61 367.72 C-380.72 350.43 -381.41 333.29 -381.38 315.75 C-381.37 314.6 -381.37 313.45 -381.37 312.27 C-381.21 245.8 -360.15 179.33 -320 126 C-319.6 125.46 -319.2 124.93 -318.79 124.37 C-315.93 120.53 -312.99 116.75 -310 113 C-309.19 111.98 -308.38 110.97 -307.55 109.92 C-300.83 101.71 -293.41 94.2 -285.94 86.69 C-285.68 86.43 -285.68 86.43 -284.4 85.14 C-277.61 78.29 -270.6 71.96 -263 66 C-262.27 65.42 -261.54 64.84 -260.79 64.25 C-248.54 54.6 -235.91 45.82 -222.5 37.88 C-221.87 37.5 -221.25 37.13 -220.6 36.75 C-208.58 29.75 -196.42 23.6 -183.5 18.44 C-182.81 18.16 -182.12 17.88 -181.4 17.59 C-160.47 9.19 -139.17 3.19 -117 -1 C-115.88 -1.21 -114.76 -1.43 -113.6 -1.65 C-76.46 -8.34 -36.96 -7.26 0 0 Z M-88 111 C-89.68 112.7 -91.31 114.43 -92.9 116.22 C-99.98 122.22 -106.53 122.58 -115.46 122.54 C-116.65 122.55 -117.83 122.56 -119.05 122.57 C-122.83 122.61 -126.6 122.62 -130.38 122.62 C-134.14 122.64 -137.91 122.66 -141.67 122.7 C-144.01 122.72 -146.35 122.73 -148.69 122.72 C-164.66 122.83 -164.66 122.83 -170.69 126.75 C-172.51 129.88 -171.84 131.53 -171 135 C-169.76 137.21 -169.76 137.21 -168.12 139.38 C-165.74 142.58 -163.46 145.81 -161.3 149.17 C-160.83 149.89 -160.36 150.62 -159.87 151.36 C-158.93 152.81 -158 154.27 -157.08 155.73 C-153.77 160.74 -153.77 160.74 -149.81 162.08 C-147 162 -147 162 -144.56 160.12 C-143.07 158.41 -141.71 156.62 -140.34 154.8 C-135.19 147.97 -130.6 143.76 -122 142 C-118.44 141.61 -114.88 141.48 -111.3 141.37 C-110.19 141.33 -109.08 141.29 -107.94 141.25 C-96.99 140.93 -86.04 140.96 -75.08 141.01 C-74.16 141.01 -73.23 141.02 -72.28 141.02 C-63.64 141.06 -54.99 141.1 -46.34 141.17 C-41.56 141.21 -36.78 141.23 -31.99 141.25 C-30.19 141.25 -28.38 141.27 -26.58 141.29 C-24.08 141.31 -21.57 141.32 -19.07 141.32 C-18.34 141.34 -17.61 141.35 -16.85 141.36 C-12.16 141.34 -8.96 140.52 -5 138 C-2.52 134.27 -2.62 132.41 -3 128 C-4.21 125.29 -5.15 123.6 -7.58 121.88 C-11.15 120.58 -14.68 120.74 -18.43 120.76 C-20.13 120.75 -21.83 120.73 -23.53 120.71 C-26.19 120.7 -28.84 120.69 -31.5 120.69 C-46.44 120.71 -58.03 118.35 -71.12 110.69 C-77.81 106.81 -81.75 105.86 -88 111 Z M63.96 112 C54.07 122.12 40.89 125.95 27.24 127.92 C24.53 128.35 22.38 128.75 20.08 130.29 C17.8 133.9 18.28 137.94 19 142 C20.37 145.28 21.92 147.2 25 149 C36.27 151.41 46.63 146.2 56.47 141.34 C57.37 140.9 58.26 140.46 59.19 140 C60.09 139.55 60.99 139.11 61.91 138.65 C68.96 135.26 75.77 133.24 83.43 131.82 C88.57 130.64 92.03 129.45 95 125 C89.63 120.27 89.63 120.27 85.94 118.69 C82.34 116.62 81.12 114.43 79.18 110.84 C78 109 78 109 75 107 C69.35 105.84 67.54 108.13 63.96 112 Z M122.38 117.75 C121.38 117.82 120.39 117.9 119.36 117.97 C107.15 119.07 107.15 119.07 102 122 C100.76 124.1 100.76 124.1 100 126 C103.29 128.94 105.74 129.48 110.09 129.84 C110.69 129.9 110.69 129.9 113.72 130.18 C114.34 130.24 114.34 130.24 117.5 130.5 C141.56 132.56 141.56 132.56 146 137 C146.44 139.94 146.44 139.94 146 143 C141.72 146.56 137.26 146.64 131.94 147 C131.48 147.04 131.48 147.04 129.14 147.23 C125.76 147.5 122.38 147.75 119 148 C113.51 148.41 108.03 148.82 102.54 149.25 C100.16 149.43 97.78 149.6 95.39 149.77 C93.89 149.89 92.39 150 90.88 150.12 C90.21 150.16 89.53 150.21 88.83 150.25 C82.66 150.76 75.43 152.38 71 157 C71 158.32 71 159.64 71 161 C74.81 163.39 78.89 163.69 83.26 164.13 C84.09 164.21 84.92 164.3 85.77 164.39 C97.47 165.46 109.22 165.09 120.95 164.88 C156.53 164.31 156.53 164.31 167 170 C166.69 172.87 166.69 172.87 166 176 C163.11 177.93 162.01 178.33 158.73 178.78 C157.9 178.9 157.08 179.02 156.23 179.14 C155.37 179.26 154.51 179.38 153.62 179.5 C142.53 181.03 142.53 181.03 139 183 C138.84 183.5 138.84 183.5 138 186 C141.5 190.44 145.09 191.05 150.38 192.06 C155.71 193.12 160.19 194.31 165 197 C164.82 201.53 164.5 203.48 161.31 206.81 C154.61 211.24 148.54 211.32 140.74 211.38 C139.64 211.4 138.55 211.41 137.41 211.43 C133.9 211.48 130.39 211.52 126.88 211.56 C122.29 211.62 117.7 211.69 113.12 211.75 C111.99 211.77 110.86 211.79 109.69 211.8 C103.08 211.91 96.5 212.15 89.91 212.54 C82.44 212.97 75.01 213.05 67.54 212.99 C66.48 212.98 65.42 212.98 64.33 212.97 C59.98 212.93 55.64 212.89 51.29 212.83 C48.06 212.79 44.83 212.76 41.6 212.74 C40.62 212.72 39.65 212.7 38.64 212.69 C33.34 212.67 29.54 212.94 25 216 C22.72 219.31 21.97 221.16 22.12 225.19 C23.05 228.15 23.64 229.09 26 231 C32.51 232.85 39.84 231.93 46.5 231.56 C55.46 231.15 64.41 230.86 73.38 230.81 C73.88 230.81 73.88 230.81 76.41 230.77 C92.91 230.75 92.91 230.75 99 235.19 C102.51 240.13 103.94 244.35 104.88 250.25 C105.7 254.73 105.7 254.73 108.31 257.06 C109.2 257.37 110.09 257.68 111 258 C111.82 258.29 112.65 258.58 113.5 258.88 C116.86 259.04 118.38 258.04 121 256 C122.42 251.75 122.59 247.34 122.9 242.89 C123.24 239.46 123.71 237.34 125.95 234.68 C137.4 228.36 150.02 229.56 162.73 229.56 C165.48 229.56 168.24 229.53 170.99 229.5 C171.84 229.51 172.68 229.52 173.55 229.53 C177.14 229.48 179.4 229.35 182.55 227.53 C184.73 223.73 184.44 220.36 184.29 216.05 C184.27 215.17 184.26 214.29 184.25 213.38 C184.2 210.54 184.14 207.71 184.06 204.88 C183.21 170.5 183.21 170.5 191 156 C188.58 152.71 186.82 150.51 183 149 C180.31 148.62 180.31 148.62 177.44 148.44 C174.33 148.23 171.97 147.99 169 147 C168.25 140.25 169.86 136.86 173.69 131.3 C175 129 175 129 175 125 C158.96 115.89 140.33 116.35 122.38 117.75 Z M26.12 156.75 C24.47 160.06 24.48 162.36 25 166 C28.54 170.07 31.79 170.5 37 171 C46.75 170.65 55.94 168.74 64 163 C65.32 160.8 65.32 160.8 66 159 C55.85 151.57 36.21 147.34 26.12 156.75 Z M-91 158 C-94.95 163.92 -92.09 171.85 -90.77 178.52 C-90.12 181.75 -89.43 184.98 -88.73 188.2 C-88.19 190.69 -87.67 193.19 -87.15 195.68 C-86.8 197.29 -86.45 198.9 -86.11 200.51 C-85.95 201.25 -85.8 201.98 -85.65 202.73 C-84.25 209.02 -82.1 214.73 -77.69 219.5 C-74.14 221.48 -72 221.57 -68 221 C-64.81 219.51 -63.47 218.16 -62.14 214.88 C-58.74 201.32 -64.57 186.33 -68 173.19 C-68.17 172.52 -68.35 171.84 -68.52 171.15 C-69.03 169.22 -69.54 167.29 -70.06 165.36 C-70.36 164.23 -70.66 163.1 -70.97 161.94 C-71.98 159.07 -72.93 157.2 -75 155 C-80.6 153.9 -86.57 154.14 -91 158 Z M-153 167 C-158.89 180.75 -161.25 195.77 -163.92 210.39 C-164.09 211.33 -164.26 212.26 -164.44 213.22 C-165.3 217.92 -166.14 222.62 -166.97 227.33 C-168.49 235.85 -170.14 244.33 -172.38 252.7 C-172.55 253.41 -172.72 254.12 -172.9 254.86 C-173.46 256.83 -173.46 256.83 -175 260 C-178.07 261.35 -178.07 261.35 -181 262 C-183 264.44 -183 265.78 -182.94 268.94 C-181.36 274.1 -178.28 276.28 -173.69 278.88 C-169 280.31 -166.74 280.24 -162 279 C-148.81 267.69 -147.51 240.3 -146.25 224.27 C-145.68 215.36 -145.62 206.43 -145.56 197.5 C-145.55 196.56 -145.54 195.62 -145.53 194.65 C-145.31 175 -145.31 175 -150 167 C-150.99 167 -151.98 167 -153 167 Z M-29 174 C-33.43 181.42 -35.13 189.56 -37.12 197.88 C-37.47 199.3 -37.82 200.72 -38.18 202.14 C-43.28 222.92 -43.28 222.92 -43.31 231 C-43.33 232.09 -43.35 233.19 -43.36 234.31 C-43.3 234.76 -43.3 234.76 -43 237 C-42.01 237.66 -41.02 238.32 -40 239 C-24.25 227.58 -15.36 205.42 -11 187 C-10.44 183.19 -10.15 179.78 -11 176 C-13.2 173.1 -14.79 171.61 -18 170 C-23.13 169.43 -25.44 170.25 -29 174 Z M-127.25 173.56 C-130.01 176.01 -131.58 177.61 -133 181 C-133.33 186.44 -132.47 191.04 -131.1 196.24 C-131 196.63 -131 196.63 -130.51 198.57 C-129.89 201.01 -129.26 203.44 -128.62 205.88 C-128 208.3 -127.38 210.73 -126.76 213.16 C-126.38 214.66 -125.99 216.17 -125.6 217.67 C-124.46 222.09 -123.44 226.52 -122.54 231 C-121.44 235.04 -119 237.89 -116.25 240.94 C-112.73 242.6 -109.57 242.26 -106 241 C-101.73 237.28 -100.67 234.83 -100.09 229.13 C-99.68 219.2 -103.26 208.54 -105.94 199.06 C-106.18 198.21 -106.42 197.36 -106.67 196.48 C-111.89 178.67 -111.89 178.67 -117 174 C-121.27 172.02 -122.95 171.5 -127.25 173.56 Z M-287 178 C-288.96 178.48 -290.91 178.96 -292.88 179.41 C-298.55 180.99 -302.59 183.2 -306 188 C-306.91 188.35 -307.81 188.7 -308.75 189.06 C-313.79 192.06 -316.44 196.8 -319 202 C-319.7 205.36 -319.7 205.36 -320 208 C-320.5 207.84 -320.5 207.84 -323 207 C-324.42 211.07 -325.08 214.19 -324.81 218.5 C-324.6 226.1 -327.62 234.25 -331 241 C-330.99 244.25 -330.87 247.49 -330.74 250.74 C-331.15 255.88 -333.78 258.95 -337.12 262.69 C-341.15 267.21 -341.09 270.37 -341 276.31 C-340.93 285.4 -341.14 294.48 -341.44 303.56 C-341.48 304.84 -341.52 306.12 -341.56 307.44 C-341.6 308.63 -341.64 309.83 -341.68 311.07 C-341.72 312.14 -341.76 313.21 -341.79 314.31 C-342 317 -342 317 -343 320 C-343.09 321.81 -343.13 323.62 -343.13 325.44 C-343.13 326.5 -343.14 327.56 -343.14 328.65 C-343.13 329.75 -343.13 330.86 -343.12 332 C-343.13 333.11 -343.13 334.21 -343.14 335.35 C-343.14 336.41 -343.13 337.47 -343.13 338.56 C-343.13 339.53 -343.13 340.5 -343.13 341.5 C-343 344 -343 344 -342 347 C-342.06 349 -342.2 351 -342.38 353 C-342.47 354.17 -342.57 355.35 -342.68 356.55 C-342.87 358.58 -343.07 360.61 -343.29 362.63 C-345.2 380.23 -346.51 401.89 -336 417 C-333.54 419.18 -331.26 420.86 -328.38 422.44 C-325.58 424.27 -324.68 426.16 -323 429 C-320.94 430.38 -320.94 430.38 -319 431 C-318.34 430.67 -317.68 430.34 -317 430 C-314.93 430.86 -314.93 430.86 -312.44 432.19 C-311.54 432.65 -310.65 433.11 -309.72 433.59 C-308.82 434.05 -307.93 434.52 -307 435 C-300.93 438.13 -296.83 439.24 -290 439 C-289.34 439.66 -288.68 440.32 -288 441 C-285.95 441.24 -285.95 441.24 -283.46 441.23 C-282.57 441.23 -281.68 441.23 -280.76 441.22 C-279.83 441.21 -278.9 441.2 -277.94 441.19 C-277 441.19 -276.06 441.19 -275.1 441.19 C-268.14 441.14 -268.14 441.14 -267 440 C-264.69 440.06 -262.37 440.15 -260.06 440.25 C-251.2 440.43 -245.38 437.71 -238.44 432.44 C-235.93 429.93 -235.73 429.24 -235 426 C-233.34 424.66 -231.67 423.32 -230 422 C-229.11 420.59 -228.23 419.18 -227.36 417.75 C-225.52 415.38 -223.31 413.66 -221 411.75 C-215.86 407.22 -214.06 403.4 -212 397 C-210.97 394.32 -209.89 391.66 -208.81 389 C-208.3 387.71 -207.78 386.42 -207.27 385.12 C-206.57 383.39 -205.84 381.67 -205 380 C-204.94 377.84 -204.94 375.67 -204.96 373.51 C-205.03 365.42 -204.86 357.34 -204.63 349.25 C-204.56 346.82 -204.5 344.39 -204.43 341.97 C-204.25 335.01 -204.04 328.05 -203.61 321.1 C-203.55 320.13 -203.49 319.16 -203.43 318.16 C-203.31 316.45 -203.19 314.74 -203.04 313.03 C-202.72 308.28 -203.37 305.91 -206 302 C-206.29 299.54 -206.29 299.54 -206.19 297.19 C-206.17 296.79 -206.17 296.79 -206.11 294.79 C-206.07 294.2 -206.04 293.61 -206 293 C-205.34 293 -204.68 293 -204 293 C-203.62 271.54 -203.62 271.54 -206 261 C-206.23 259.9 -206.46 258.8 -206.7 257.67 C-207.7 253.04 -208.74 248.57 -210.46 244.15 C-212.07 239.96 -213.18 235.74 -214.19 231.38 C-214.36 230.65 -214.54 229.93 -214.72 229.18 C-215.91 224.15 -216.59 219.59 -215.42 214.46 C-214.33 208.1 -217.82 200.39 -221 195 C-221.33 194.67 -221.33 194.67 -223 193 C-223.15 192.68 -223.15 192.68 -223.93 191.09 C-225.84 187.37 -228.95 184.8 -232 182 C-232.51 181.51 -233.03 181.02 -233.56 180.51 C-238.94 175.98 -245.23 175.79 -252 175 C-252.82 174.82 -253.64 174.64 -254.48 174.46 C-264.29 172.66 -278.52 172.27 -287 178 Z M63.13 177.05 C59.82 177.12 56.5 177.22 53.19 177.31 C52.66 177.32 52.66 177.32 49.97 177.38 C42.2 177.65 35.82 178.98 28.94 182.62 C26.39 185.75 26.34 187.92 26.59 191.88 C27 194 27 194 28.5 196.5 C36.09 201.05 46.62 198.69 55.07 198.07 C56.65 197.96 58.22 197.86 59.79 197.75 C63.08 197.52 66.36 197.29 69.65 197.05 C73.83 196.75 78.01 196.46 82.18 196.17 C85.43 195.95 88.68 195.72 91.92 195.49 C93.46 195.38 95 195.27 96.54 195.17 C123.06 193.33 123.06 193.33 129 189 C129.81 186.31 129.81 186.31 130 184 C118.61 177.58 104.92 177.94 92.19 177.44 C91.13 177.4 90.07 177.35 88.98 177.31 C80.35 176.99 71.77 176.89 63.13 177.05 Z M165 238 C163.08 241.84 163.44 245.82 164 250 C165.26 253.77 166.76 257.37 168.33 261.02 C170.08 265.08 171.5 269.23 172.88 273.44 C173.09 274.09 173.3 274.75 173.53 275.43 C174.02 276.95 174.51 278.48 175 280 C175.66 280 176.32 280 177 280 C177 280.66 177 281.32 177 282 C180.86 284.05 183.85 284.29 188.07 283.6 C191.4 282.56 192.97 280.76 195 278 C197.31 271.8 194.71 265.88 192.17 260.11 C182.16 238.44 182.16 238.44 174 235 C169.71 235 168.41 235.6 165 238 Z M66 241 C63.73 245.34 63.7 249.52 63.75 254.31 C63.74 255.03 63.73 255.75 63.73 256.5 C63.75 262.63 64.45 268.38 67.62 273.75 C79.79 285.27 100.37 283.21 115.85 283.24 C118.63 283.25 121.4 283.28 124.17 283.31 C125.96 283.32 127.75 283.32 129.54 283.33 C129.95 283.33 129.95 283.33 132.01 283.37 C138.59 283.34 145.02 282.29 150.34 278.2 C157.25 269.75 157.81 261.73 157 251 C156.18 247.13 154.82 244.72 151.81 242.06 C147.83 240.56 145.26 240.53 141 241 C136.85 244.05 136.01 247.68 135 252.5 C133.99 257.34 133.15 260.94 129 264 C122.73 266.5 116.78 266.37 110.11 266.37 C108.07 266.37 106.03 266.41 103.99 266.45 C91.43 266.49 91.43 266.49 86 262 C84.52 257.55 85.09 253.2 85.26 248.54 C84.97 244.62 84.04 242.33 82 239 C79.28 236.79 77.45 236.08 74 235.5 C69.91 236.18 68.56 237.8 66 241 Z M38 242 C35.74 245.84 33.85 249.86 31.93 253.88 C28.69 260.34 24.72 264.77 19.29 269.48 C18 271 18 271 17.94 274.38 C19.34 279.15 20.97 280.21 25 283 C28.53 284.76 32.27 283.92 36 283 C41.22 279.32 43.48 273.69 46 268 C46.46 266.98 46.92 265.97 47.39 264.92 C50.5 257.52 52.7 250.11 52 242 C50.68 239.16 50.68 239.16 49 237 C43.66 235.84 41.15 237.96 38 242 Z M-49.69 247.69 C-58.27 256.71 -69.93 259.61 -82.08 260.13 C-90.72 260.28 -99.36 260.14 -108 260 C-113.12 259.92 -118.25 259.86 -123.38 259.81 C-124.54 259.79 -125.7 259.76 -126.9 259.74 C-133.04 259.68 -137.65 259.84 -143 263 C-145.13 266.2 -145.32 267.29 -145.38 271 C-145.4 271.87 -145.43 272.73 -145.46 273.62 C-145 276 -145 276 -143.38 277.73 C-140.4 279.32 -137.84 279.78 -134.5 280.25 C-133.38 280.42 -132.25 280.59 -131.09 280.77 C-127.81 281.07 -124.72 280.84 -121.44 280.52 C-115.54 280 -109.72 279.88 -103.8 279.93 C-103.28 279.94 -103.28 279.94 -100.63 279.95 C-98.38 279.96 -96.13 279.97 -93.88 279.99 C-90.32 280.01 -86.76 280.02 -83.2 280.03 C-73.09 280.07 -62.97 280.11 -52.86 280.17 C-46.65 280.21 -40.45 280.23 -34.24 280.25 C-31.88 280.25 -29.52 280.27 -27.16 280.29 C-23.87 280.31 -20.58 280.32 -17.29 280.32 C-16.32 280.34 -15.35 280.35 -14.34 280.36 C-9.42 280.35 -5.98 280.27 -2 277 C0.34 273.77 0.54 270.9 0 267 C-1.22 264.18 -2.68 262.02 -5 260 C-8.32 259.05 -11.5 259.11 -14.94 259.19 C-22.92 259.19 -29.26 259.14 -35.61 253.57 C-38.1 250.76 -39.55 247.44 -41 244 C-45.45 243.55 -46.82 244.33 -49.69 247.69 Z M-345 288 C-345 289.98 -345 291.96 -345 294 C-344.67 294 -344.34 294 -344 294 C-344 292.02 -344 290.04 -344 288 C-344.33 288 -344.66 288 -345 288 Z M-201 316 C-201.92 320.66 -202.12 325.15 -202.06 329.88 C-202.06 330.56 -202.05 331.25 -202.05 331.96 C-202.04 333.64 -202.02 335.32 -202 337 C-201.67 337 -201.34 337 -201 337 C-200.15 329.97 -199.88 323.08 -200 316 C-200.33 316 -200.66 316 -201 316 Z M-147 336 C-148.57 338.57 -149.79 341.24 -151 344 C-152.53 347.4 -153.48 348.59 -157 350 C-157 350.66 -157 351.32 -157 352 C-157.57 352.28 -158.14 352.56 -158.73 352.85 C-173.12 360.12 -173.12 360.12 -177 364 C-177.09 367.09 -176.78 370.01 -176 373 C-172.61 376.48 -170.13 377.9 -165.31 378.31 C-157.43 378.16 -151.41 372.21 -145.36 367.71 C-141.66 365.03 -139.58 364.64 -135 365 C-130.37 367.26 -130.37 367.26 -129 370 C-128.34 370 -127.68 370 -127 370 C-126.75 370.78 -126.5 371.57 -126.25 372.38 C-125 375 -125 375 -123.31 376.38 C-119.84 377.31 -117.47 376.91 -114 376 C-112.03 373.16 -112.03 373.16 -110.5 369.62 C-107.33 363.23 -107.33 363.23 -103.88 360.81 C-99.27 359.85 -94.66 359.1 -89.99 358.53 C-87.25 358.04 -85.38 357.39 -83 356 C-82.69 352.81 -82.69 352.81 -83 349 C-85.17 346.37 -86.95 344.53 -90 343 C-91.99 342.95 -93.98 342.96 -95.97 343.01 C-97.18 343.02 -98.39 343.04 -99.64 343.06 C-102.18 343.1 -104.72 343.15 -107.27 343.21 C-124.23 343.41 -124.23 343.41 -129.64 338.51 C-130.84 337.07 -131.93 335.54 -133 334 C-137.87 331.56 -143 332.54 -147 336 Z M-70 337 C-71.7 339.88 -71.7 339.88 -73.25 343.12 C-76.19 348.9 -79.55 353.17 -84.18 357.68 C-86.39 360.5 -86.79 362.45 -87 366 C-85.69 369.2 -84.66 370.61 -81.69 372.38 C-78.35 373.15 -76.33 372.85 -73 372 C-70.18 370.07 -70.18 370.07 -67.44 367.69 C-66.53 366.91 -65.62 366.13 -64.68 365.32 C-63.8 364.56 -62.91 363.79 -62 363 C-58.68 360.15 -55.79 358.28 -51.69 356.75 C-50.8 356.41 -49.92 356.08 -49.01 355.73 C-48.35 355.49 -47.68 355.25 -47 355 C-46.09 349.24 -48.6 345.71 -51.49 340.98 C-51.99 340.32 -52.49 339.67 -53 339 C-53.66 339 -54.32 339 -55 339 C-55.33 338.01 -55.66 337.02 -56 336 C-61.59 331.92 -65.07 332.21 -70 337 Z M137.36 338.62 C128.29 339.21 119.2 339.35 110.11 339.55 C107.77 339.6 105.43 339.66 103.09 339.72 C102.4 339.73 101.7 339.75 100.98 339.76 C96.26 339.88 91.68 340.35 87 341 C86.25 347.67 87.86 351.21 91.49 356.8 C95.29 364.86 95.42 374.04 95.44 382.81 C95.44 383.91 95.45 385.01 95.45 386.15 C95.29 397.86 93.27 409.09 91.09 420.57 C88.88 432.7 88.88 432.7 91.44 437.94 C93 440 93 440 94 441 C95.96 441.1 97.92 441.13 99.88 441.12 C100.94 441.13 102.01 441.13 103.12 441.13 C106 441 106 441 109 440 C117.23 439.24 123.61 440.34 131 444 C130.43 446.87 130.14 447.86 128 450 C125.08 450.38 125.08 450.38 121.38 450.56 C121.06 450.58 121.06 450.58 119.4 450.67 C117.31 450.79 115.22 450.9 113.12 451 C110.38 451.14 107.63 451.28 104.88 451.44 C103.66 451.5 102.44 451.56 101.18 451.62 C98.23 451.97 96.44 452.37 94 454 C92.27 457.46 92.51 461.22 93 465 C94.79 467.87 95.98 469.49 99 471 C100.4 471.1 101.81 471.16 103.22 471.18 C124.72 471.72 124.72 471.72 130 477 C130.44 479.31 130.44 479.31 130 482 C121.46 489.47 110.01 488.34 99.38 488.39 C88.75 488.61 88.75 488.61 84 493 C82.57 495.85 82.69 497.83 83 501 C84.38 503.75 84.38 503.75 87 506 C93.92 508.29 100.31 507.98 107.43 507.11 C117.67 506.07 127.76 505.87 138.04 505.98 C139.53 505.99 141.03 506.01 142.52 506.02 C148.64 506.08 154.77 506.16 160.89 506.27 C164.7 506.33 168.5 506.37 172.31 506.4 C173.75 506.41 175.18 506.43 176.61 506.47 C178.6 506.51 180.58 506.53 182.57 506.54 C183.7 506.55 184.82 506.57 185.98 506.59 C189.97 505.81 191.45 504.09 194 501 C195.1 497.99 195.31 495.19 195 492 C193.29 489.46 192.16 488.39 189.26 487.42 C186.32 486.88 183.5 486.85 180.51 486.82 C179.25 486.8 177.98 486.78 176.68 486.75 C174.03 486.71 171.38 486.68 168.73 486.66 C161.59 486.5 156.83 486.22 151 482 C150.34 482 149.68 482 149 482 C149.12 479.25 149.12 479.25 150 476 C155.18 471.64 159.8 470.89 166.38 470.86 C167.38 470.84 168.39 470.82 169.42 470.8 C171.52 470.77 173.62 470.75 175.72 470.75 C183.35 470.56 183.35 470.56 186.68 467.7 C188.53 463.92 188.99 461.11 188 457 C185.82 454.31 184.09 452.54 181 451 C179.27 450.88 177.53 450.82 175.8 450.79 C174.76 450.76 173.71 450.73 172.63 450.7 C170.44 450.65 168.24 450.61 166.05 450.57 C159.96 450.39 155.4 449.89 150 447 C150.06 445.19 150.06 445.19 151 443 C159.87 438.39 168.07 438.5 177.75 439.69 C181.12 440.01 182.82 440.06 186.06 438.94 C191.49 433.51 190.87 424.26 191.03 417.03 C190.99 414.15 190.56 411.4 190.06 408.56 C186.98 390.42 187.98 369.99 192.48 352.19 C193.03 348.81 192.75 346.32 192 343 C174.26 336.5 155.97 337.36 137.36 338.62 Z M20.75 345.5 C18.56 349.88 17.81 353.2 19 358 C21.15 360.87 21.83 361.73 25 363 C28.06 363.41 31.09 363.57 34.17 363.72 C40.34 364.33 43.26 368.25 47.06 372.69 C47.38 373.08 47.38 373.08 48.97 375.07 C51.32 377.3 52.83 377.68 56 378 C58.14 375.4 60.02 372.97 61.62 370 C65.33 365.32 70.52 363.21 76.1 361.27 C79.71 360 80.93 359.11 83 355.81 C84.19 351.28 83.88 348.56 83 344 C77.52 342.16 72.75 341.72 66.99 341.77 C66.14 341.77 65.29 341.77 64.41 341.77 C62.62 341.77 60.83 341.78 59.04 341.79 C56.34 341.81 53.63 341.81 50.93 341.81 C24.38 341.86 24.38 341.86 20.75 345.5 Z M-40 349 C-41.31 351.19 -41.31 351.19 -42 353 C-36.49 359.58 -29.38 361.25 -21 362 C-14.84 362.45 -10.44 362.05 -5 359 C-3 357.25 -3 357.25 -2 355 C-2.12 351.57 -2.27 349.05 -4.25 346.19 C-14.26 339.4 -30.53 342.51 -40 349 Z M-347 355 C-346.67 355.66 -346.34 356.32 -346 357 C-345.67 356.34 -345.34 355.68 -345 355 C-345.66 355 -346.32 355 -347 355 Z M-347 358 C-346 362 -346 362 -346 362 Z M-48 361 C-50.77 365.66 -50.27 369.86 -49 375 C-46.4 378.75 -44.8 379.76 -40.44 381.06 C-37 381 -37 381 -34.56 379.5 C-32.36 375.97 -32.31 374.1 -33 370 C-35.57 365.89 -38.48 362.86 -43 361 C-45.75 360.88 -45.75 360.88 -48 361 Z M-102 378 C-107 381.72 -112.06 383.7 -117.87 385.71 C-122.77 387.53 -122.77 387.53 -124.02 390.09 C-124 392 -124 392 -122.94 393.62 C-115.04 399.23 -103.83 398.17 -94.65 398.25 C-92.67 398.27 -90.7 398.3 -88.73 398.32 C-83.9 398.38 -79.06 398.43 -74.23 398.48 C-71.51 398.5 -68.8 398.53 -66.08 398.57 C-63.53 398.6 -60.99 398.63 -58.44 398.65 C-29.61 399.05 -29.61 399.05 -20.88 407.69 C-20.26 408.45 -19.64 409.21 -19 410 C-18.67 410.33 -18.34 410.66 -18 411 C-17.87 412.73 -17.77 414.46 -17.69 416.19 C-17.27 421.36 -16.39 424.1 -13 428 C-9.95 429.52 -7.36 429.24 -4 429 C-1.38 427.17 -1.03 426.09 0 423 C0.44 417.34 0.62 411.95 -1.5 406.62 C-3.86 400.63 -3.24 394.33 -3 388 C-9.46 384.54 -15.53 384.41 -22.77 384.16 C-23.99 384.1 -25.22 384.05 -26.49 383.99 C-30.41 383.81 -34.33 383.65 -38.25 383.5 C-43.4 383.3 -48.55 383.07 -53.7 382.84 C-54.87 382.8 -56.04 382.76 -57.24 382.72 C-68.67 382.21 -77.86 379.36 -87.96 374.21 C-94.66 371.55 -97.34 372.87 -102 378 Z M-347 375 C-348.78 376.78 -348.17 379.34 -348.19 381.75 C-348.13 388.55 -347.68 395.38 -346 402 C-345.34 402.33 -344.68 402.66 -344 403 C-344.66 393.76 -345.32 384.52 -346 375 C-346.33 375 -346.66 375 -347 375 Z M53 384 C51.89 385.25 50.79 386.5 49.69 387.75 C49.07 388.45 48.46 389.14 47.82 389.86 C46 392 46 392 44.76 394.17 C42.08 396.96 38.86 397.07 35.19 397.56 C29.13 398.43 23.78 399.41 19.12 403.75 C17.5 407.01 17.62 409.41 18 413 C20.2 417.6 20.2 417.6 23 419 C26.77 419.16 30.53 419.25 34.3 419.33 C38.79 420.14 40.2 421.47 43 425 C49.18 435.19 45.55 448.17 43 459 C40.41 469.57 40.41 469.57 35.5 472.88 C31.02 475.21 26.26 477.01 21.54 478.79 C19 480 19 480 17 483 C16.32 488.04 16.01 493.23 18.88 497.62 C21.41 500.46 22.14 500.92 25.9 501.26 C31.35 501.18 36.45 499.39 41.62 497.81 C42.7 497.49 43.77 497.17 44.88 496.84 C55.75 493.53 65.94 489.7 76.06 484.5 C76.79 484.13 77.52 483.76 78.27 483.39 C82.45 481.17 85.46 479.14 88 475 C88.54 472.1 88.01 469.75 87 467 C84.15 463.2 84.15 463.2 81 462 C77.63 461.79 74.39 461.87 71.02 462.12 C67.47 461.98 66.5 461.46 64 459 C63.31 456.49 63.31 456.49 63.07 453.52 C62.98 452.44 62.88 451.36 62.79 450.24 C62.72 449.11 62.64 447.98 62.56 446.81 C62.46 445.7 62.36 444.59 62.25 443.44 C61.62 435.1 62.53 429.89 67.06 422.75 C69.96 419.48 73.62 418.31 77.7 416.96 C80.17 415.93 81.41 415.15 83 413 C83.69 409.93 83.56 407.09 83 404 C80.98 400.93 79.47 399.39 75.88 398.43 C74.32 398.14 72.76 397.86 71.21 397.57 C65.45 396.08 62.25 391.3 59.37 386.45 C57.47 384.43 55.69 384.34 53 384 Z M-171 387 C-172.3 388.91 -172.3 388.91 -173 391 C-172.69 391.89 -172.38 392.77 -172.06 393.69 C-169.62 401.32 -172.43 407.66 -175.75 414.62 C-177 417 -177 417 -179 420 C-179.42 423.85 -179.59 426.1 -177.44 429.38 C-174.2 431.54 -171.88 431.93 -168 432 C-163.82 430.25 -161.58 427.67 -159 424 C-157.88 420.66 -157.88 420.66 -157 417.06 C-155.41 410.55 -153.5 405.75 -147.88 401.81 C-144.19 399.88 -140.31 398.9 -136.31 397.79 C-133.33 396.77 -131.26 395.18 -129 393 C-129.12 391.19 -129.12 391.19 -130 389 C-139.59 383.11 -160.75 381.95 -171 387 Z M-153 414 C-153.48 418.34 -152.26 420.38 -150 424 C-147.16 433.28 -149.82 442.8 -151.88 451.94 C-160.64 492.72 -160.64 492.72 -155.73 503.89 C-153.71 506.35 -153.06 506.49 -150 507 C-148.23 507.07 -146.45 507.08 -144.68 507.06 C-144.14 507.05 -144.14 507.05 -141.4 507.02 C-140.23 507 -139.05 506.98 -137.83 506.96 C-136.59 506.95 -135.34 506.93 -134.06 506.91 C-130.64 506.87 -127.22 506.82 -123.81 506.76 C-120.95 506.72 -118.1 506.68 -115.24 506.64 C-108.5 506.54 -101.76 506.44 -95.02 506.33 C-88.08 506.22 -81.14 506.12 -74.2 506.03 C-68.23 505.95 -62.26 505.86 -56.3 505.77 C-52.73 505.71 -49.17 505.66 -45.61 505.61 C-41.64 505.56 -37.66 505.49 -33.69 505.43 C-32.52 505.41 -31.34 505.4 -30.14 505.39 C-24.12 505.27 -18.73 504.92 -13 503 C-11.02 499.04 -11.65 493.76 -12.5 489.5 C-14.32 480.42 -12.59 470.19 -12 461 C-23.35 455.52 -36.23 457.46 -48 461 C-48.99 461.66 -49.98 462.32 -51 463 C-50.67 465.92 -50.16 466.86 -47.89 468.82 C-47.02 469.39 -46.15 469.97 -45.25 470.56 C-44.39 471.14 -43.53 471.72 -42.64 472.32 C-40.87 473.45 -39.07 474.53 -37.24 475.56 C-35 477 -35 477 -33.94 479.44 C-34 482 -34 482 -35.56 484.19 C-43.63 490.19 -55.46 489.24 -65.06 489.56 C-65.68 489.58 -65.68 489.58 -68.8 489.69 C-124.92 491.46 -124.92 491.46 -132.06 485.19 C-133.19 482.55 -133.45 480.84 -133 478 C-127.79 474.53 -122.43 474.82 -116.32 474.72 C-115.48 474.7 -114.64 474.68 -113.77 474.66 C-111.08 474.6 -108.38 474.55 -105.69 474.5 C-61.99 473.64 -61.99 473.64 -55 467 C-55 465.68 -55 464.36 -55 463 C-56.25 462.52 -57.5 462.04 -58.75 461.56 C-59.45 461.3 -60.14 461.03 -60.86 460.75 C-65.06 459.28 -68.69 458.87 -73.16 458.83 C-74.4 458.81 -75.65 458.8 -76.93 458.79 C-77.59 458.78 -78.26 458.78 -78.94 458.77 C-81.02 458.75 -83.1 458.73 -85.18 458.71 C-91.1 458.63 -97.01 458.57 -102.93 458.52 C-106.55 458.49 -110.17 458.45 -113.79 458.4 C-115.17 458.39 -116.55 458.37 -117.93 458.37 C-119.86 458.35 -121.78 458.33 -123.71 458.3 C-124.26 458.3 -124.26 458.3 -127.03 458.27 C-130.09 457.99 -132.28 457.4 -135 456 C-135.81 453.88 -135.81 453.88 -136 452 C-132.09 449.68 -128.9 448.75 -124.38 448.12 C-120.37 447.49 -119.31 447.3 -116.31 444.38 C-115.88 443.59 -115.45 442.81 -115 442 C-115.56 440.19 -115.56 440.19 -117 438 C-119.36 436.82 -121.54 435.89 -124 435 C-124.74 434.72 -125.48 434.44 -126.24 434.15 C-128.15 433.42 -130.08 432.71 -132 432 C-131.88 430.25 -131.88 430.25 -131 428 C-126.53 424.41 -123.22 423.44 -117.55 423.06 C-116.85 423 -116.15 422.95 -115.42 422.9 C-113.2 422.73 -110.98 422.58 -108.75 422.44 C-83.93 420.77 -83.93 420.77 -77 415 C-77 413.68 -77 412.36 -77 411 C-78.01 410.53 -79.02 410.05 -80.06 409.56 C-80.63 409.3 -81.2 409.03 -81.79 408.75 C-87.36 406.86 -93.27 406.83 -99.11 406.8 C-99.87 406.79 -100.63 406.78 -101.41 406.78 C-103.86 406.76 -106.3 406.75 -108.75 406.75 C-109.58 406.75 -110.41 406.75 -111.26 406.75 C-145.76 406.76 -145.76 406.76 -153 414 Z M-69 410 C-70.44 412.12 -70.44 412.12 -71 414 C-66.52 418.88 -61.64 420.16 -55.29 421.39 C-51.92 422.13 -50.25 422.71 -47.98 425.38 C-46.9 428.27 -47.13 429.15 -48 432 C-54.41 433.82 -60.61 434.57 -67.25 435.06 C-68.3 435.15 -69.34 435.23 -70.42 435.32 C-75.51 435.72 -80.6 436.05 -85.7 436.24 C-86.59 436.28 -87.47 436.31 -88.38 436.35 C-90.03 436.41 -91.67 436.45 -93.32 436.48 C-98.8 436.67 -104.05 437.51 -109 440 C-109.66 440.99 -110.32 441.98 -111 443 C-102.45 449.94 -91.23 449.31 -80.7 449.3 C-79.47 449.31 -78.24 449.31 -76.97 449.31 C-74.38 449.32 -71.79 449.32 -69.2 449.32 C-65.25 449.31 -61.29 449.34 -57.34 449.36 C-54.82 449.36 -52.29 449.36 -49.77 449.36 C-48.59 449.37 -47.41 449.38 -46.2 449.39 C-40.06 449.36 -35.35 449.15 -30 446 C-27.64 442.45 -27.6 439.73 -27.44 435.62 C-27.37 434.19 -27.3 432.75 -27.23 431.31 C-27.19 430.59 -27.16 429.87 -27.12 429.12 C-26.88 424.93 -26.42 420.75 -25.99 416.57 C-26 414 -26 414 -28 411 C-39.33 407 -57.65 405.17 -69 410 Z " fill="#e70101" transform="translate(381,5)"/>
<path d="M0 0 C8.53 -0.3 20.58 0.45 27.55 5.78 C30.07 8.97 30.16 11.11 30.43 15.16 C30.51 15.87 30.6 16.57 30.69 17.3 C31.38 26.58 27.34 37.18 21.36 44.28 C20.41 45.26 19.43 46.22 18.43 47.16 C17.5 48.08 16.57 49.01 15.61 49.97 C15.25 50.33 15.25 50.33 13.43 52.16 C13.26 52.49 13.26 52.49 12.43 54.16 C11.77 54.16 11.11 54.16 10.43 54.16 C10.16 55.08 9.89 56.01 9.61 56.97 C7.87 61.64 7.87 61.64 5.43 63.16 C1.34 63.68 -0.7 63.83 -4.01 61.28 C-5.57 59.16 -5.57 59.16 -5.57 57.16 C-6.89 57.16 -8.21 57.16 -9.57 57.16 C-9.57 57.82 -9.57 58.48 -9.57 59.16 C-12.98 62.49 -16.2 64.95 -20.95 65.66 C-23.57 65.16 -23.57 65.16 -25.57 63.16 C-27.86 63.18 -27.86 63.18 -30.64 63.53 C-43.27 64.93 -43.27 64.93 -48.57 63.16 C-48.72 64.29 -48.86 65.43 -49.01 66.59 C-49.57 70.16 -49.57 70.16 -50.57 71.16 C-54.91 71.67 -56.95 71.59 -60.58 69.07 C-63.76 66.25 -65.62 63.01 -67.32 59.16 C-67.62 58.5 -67.91 57.85 -68.22 57.18 C-70.83 51.11 -72.58 44.81 -72.57 38.16 C-71.6 35.79 -71.6 35.79 -70.57 34.16 C-64.2 35.2 -58.62 40.48 -54.81 45.46 C-53.66 47.32 -52.6 49.23 -51.57 51.16 C-49.92 50.5 -48.27 49.84 -46.57 49.16 C-46.9 48.29 -47.23 47.42 -47.57 46.53 C-49.47 40.01 -49.72 31.59 -47.57 25.16 C-49.22 23.84 -50.87 22.52 -52.57 21.16 C-52.3 19.29 -52.3 19.29 -51.57 17.16 C-50.01 16 -50.01 16 -48.01 15.09 C-47.65 14.93 -47.65 14.93 -45.81 14.09 C-43.15 12.98 -40.47 11.97 -37.76 11 C-35.22 10.02 -32.79 8.88 -30.32 7.72 C-20.21 3.09 -11.04 0.67 0 0 Z M-4.7 14.47 C-5.52 14.68 -6.35 14.9 -7.2 15.12 C-7.98 15.33 -8.77 15.55 -9.58 15.77 C-10.3 15.96 -11.02 16.16 -11.76 16.36 C-13.57 17.16 -13.57 17.16 -15.57 20.16 C-15.31 20.51 -15.31 20.51 -13.95 22.28 C-12.57 25.16 -12.57 25.16 -13.07 27.84 C-14.76 31.57 -16.61 35.19 -18.55 38.79 C-19.57 41.16 -19.57 41.16 -19.57 45.16 C-16.99 45.66 -14.41 46.16 -11.82 46.66 C-11.09 46.8 -10.37 46.94 -9.61 47.09 C-6.18 47.75 -3.08 48.16 0.43 48.16 C0.67 47.72 0.67 47.72 1.93 45.52 C2.26 44.95 2.58 44.37 2.92 43.79 C3.64 42.52 4.35 41.26 5.07 39.99 C6.84 36.88 8.64 33.82 10.55 30.8 C15.98 22.17 15.98 22.17 15.74 18.09 C14.43 15.16 14.43 15.16 11.61 13.22 C5.73 11.26 1.03 12.89 -4.7 14.47 Z M-38.76 24.16 C-39.85 24.34 -40.94 24.53 -42.05 24.72 C-42.89 24.86 -43.72 25.01 -44.57 25.16 C-43.98 26.76 -43.37 28.37 -42.76 29.97 C-42.59 30.42 -42.59 30.42 -41.74 32.68 C-40.61 35.08 -39.56 36.44 -37.57 38.16 C-34.17 36.75 -32.33 35.43 -30.57 32.16 C-30.04 29.17 -29.76 26.19 -29.57 23.16 C-32.76 23.16 -35.62 23.62 -38.76 24.16 Z " fill="#e70101" transform="translate(127.57421875,220.84375)"/>
<path d="M0 0 C2.34 0.15 2.34 0.15 5 1 C6.48 3.48 6.48 3.48 7.62 6.62 C8.9 10.07 10.13 13.3 11.94 16.5 C13.33 21.1 12.49 24.45 11.54 29.09 C10.99 32.07 10.96 34.84 11.06 37.86 C10.98 40.55 10.5 43.08 10.02 45.74 C8.77 53.59 8.69 61.33 8.75 69.25 C8.75 69.61 8.75 69.61 8.76 71.45 C8.79 80.87 9.13 90.12 10.48 99.45 C11.04 103.31 11.39 107.11 11.69 111 C11.77 112.13 11.86 113.27 11.95 114.44 C11.97 115.28 11.98 116.13 12 117 C11 118 11 118 8.67 118.29 C4.46 117.84 3.03 115.39 0.45 112.25 C-1.61 109.06 -1.92 106.76 -2 103 C-2.66 103 -3.32 103 -4 103 C-7.45 91.78 -8.4 80.89 -8.38 69.19 C-8.38 67.89 -8.38 66.59 -8.38 65.26 C-8.3 58.03 -7.7 51.14 -6.49 44.02 C-5.76 39.49 -5.46 34.95 -5.12 30.38 C-4.29 20.02 -2.4 10.09 0 0 Z " fill="#e70101" transform="translate(136,302)"/>
<path d="M0 0 C2.72 1.24 3.37 2.72 4.73 5.34 C5.16 6.14 5.59 6.95 6.03 7.77 C6.98 9.9 6.98 9.9 6.98 11.9 C7.73 12.07 8.47 12.23 9.23 12.4 C13.25 14.6 14.29 17.79 15.98 21.9 C16.16 22.3 16.16 22.3 17.05 24.33 C21.29 36.05 19.89 55.73 14.98 66.9 C14.81 67.56 14.64 68.21 14.47 68.88 C12.94 74.27 12.94 74.27 10.15 76.12 C6.39 77.63 3.89 78.26 -0.02 76.9 C-2.06 75.64 -4.06 74.3 -6.02 72.9 C-6.96 72.28 -7.91 71.66 -8.89 71.03 C-11.02 68.9 -11.02 68.9 -11.58 65.96 C-10.9 62.25 -9.41 60.78 -7.02 57.9 C-4.92 52.5 -4.65 47.24 -4.36 41.48 C-4.02 38.9 -4.02 38.9 -2.02 36.9 C-1.83 33.19 -1.78 29.97 -2.58 26.34 C-3.17 23.06 -2.5 20.18 -2.02 16.9 C-2.35 15.91 -2.68 14.92 -3.02 13.9 C-3.68 13.57 -4.34 13.24 -5.02 12.9 C-5.1 11.11 -5.15 9.32 -5.2 7.53 C-5.24 6.53 -5.27 5.53 -5.31 4.5 C-5.26 4.07 -5.26 4.07 -5.02 1.9 C-2.02 -0.1 -2.02 -0.1 0 0 Z " fill="#e70101" transform="translate(72.015625,337.09765625)"/>
<path d="M0 0 C2.91 1.44 3.68 3.48 5.14 6.34 C5.39 6.82 5.39 6.82 6.68 9.3 C9.43 15.06 9.5 20.67 9.95 26.96 C10.05 28.24 10.16 29.53 10.27 30.85 C11.79 50.43 11.79 50.43 8.95 58.96 C7.63 58.96 6.31 58.96 4.95 58.96 C2.91 56.76 2.91 56.76 0.89 53.71 C0.22 52.74 -0.46 51.76 -1.15 50.76 C-6.85 40.48 -6.43 29.08 -6.24 17.71 C-6.22 16.18 -6.21 14.64 -6.2 13.11 C-6.16 9.39 -6.11 5.68 -6.05 1.96 C-2.31 -0.04 -2.31 -0.04 0 0 Z " fill="#e70101" transform="translate(107.05078125,337.0390625)"/>
<path d="M0 0 C4.16 2.91 6.29 6.63 7.31 11.56 C7.44 14.27 7.27 15.58 5.8 17.87 C2.11 21.46 -1.67 22.98 -6.79 23.24 C-11.44 22.74 -14.51 20.35 -17.94 17.25 C-19.55 13.83 -19.75 10.65 -19 7 C-17.26 3.73 -14.88 1.56 -11.75 -0.44 C-7.61 -1.28 -4.05 -1.32 0 0 Z " fill="#e70101" transform="translate(549,359)"/>
<path d="M0 0 C4.03 2.16 6.3 3.77 8 8 C8.74 12.71 8.42 16.17 6.25 20.44 C4.19 22.78 2.9 23.97 0 25 C-0.39 27.68 -0.57 29.39 0 32 C1.53 34.04 3.27 35.77 5.04 37.6 C8.74 42.13 10.77 47.63 13 53 C14.65 53 16.3 53 18 53 C18.25 52.13 18.5 51.27 18.75 50.38 C20.66 45.22 23.56 40.33 28 37 C33.97 35.53 37.54 35.79 43 39 C46.87 44.03 47.43 48.76 47 55 C45.71 58.72 44.65 60.51 41.5 62.88 C35.5 64.8 29.91 65.38 24.09 62.62 C22.22 61.51 20.36 60.4 18.49 59.29 C16 58 16 58 12.38 57.81 C9.44 58.84 7.21 59.99 4.56 61.56 C-0.06 64.26 -2.67 64.76 -8 64 C-12.45 62.38 -15.34 60.99 -18 57 C-18.48 54.48 -18.48 54.48 -18.75 51.62 C-18.85 50.69 -18.95 49.75 -19.05 48.79 C-18.97 44.32 -17.7 41.76 -14.69 38.5 C-12.87 36.81 -11.02 35.17 -9.12 33.56 C-7 31 -7 31 -6.69 28.19 C-8.07 24.82 -9.32 23.57 -11.94 21.12 C-16.11 17.19 -17.63 14.77 -18 9 C-14.41 1.22 -8.4 -2.63 0 0 Z " fill="#e70101" transform="translate(508,361)"/>
</svg>
