<svg xmlns="http://www.w3.org/2000/svg">
  <symbol id="home" viewBox="0 0 32 32">
    <path d="M5 15.5 16 6l11 9.5v10a2 2 0 0 1-2 2h-6v-8h-6v8H7a2 2 0 0 1-2-2z" fill="none" stroke="currentColor" stroke-width="2.2" stroke-linejoin="round"/>
  </symbol>
  <symbol id="monitor" viewBox="0 0 32 32">
    <path d="M8 25V12M16 25V7M24 25V15" fill="none" stroke="currentColor" stroke-width="2.2" stroke-linecap="round"/>
    <path d="M5 25h22" stroke="currentColor" stroke-width="2.2" stroke-linecap="round"/>
    <path d="M8 12c2-4 5-4 8 0s6 4 8 0" fill="none" stroke="currentColor" stroke-width="1.6" opacity=".55"/>
  </symbol>
  <symbol id="siren" viewBox="0 0 32 32">
    <path d="M10 25h12M8 21h16l-2-10a6 6 0 0 0-12 0z" fill="none" stroke="currentColor" stroke-width="2.2" stroke-linejoin="round"/>
    <path d="M5 12 3 10M27 12l2-2M16 3V1" stroke="currentColor" stroke-width="2" stroke-linecap="round"/>
  </symbol>
  <symbol id="users" viewBox="0 0 32 32">
    <circle cx="16" cy="11" r="5" fill="none" stroke="currentColor" stroke-width="2.2"/>
    <path d="M7 27c1.6-6 16.4-6 18 0" fill="none" stroke="currentColor" stroke-width="2.2" stroke-linecap="round"/>
    <path d="M6 18c-2.7.6-4.2 2.2-5 5M26 18c2.7.6 4.2 2.2 5 5" fill="none" stroke="currentColor" stroke-width="1.7" opacity=".55"/>
  </symbol>
  <symbol id="mine" viewBox="0 0 32 32">
    <path d="M5 26h22M8 26V12l8-5 8 5v14M12 26v-8h8v8" fill="none" stroke="currentColor" stroke-width="2.2" stroke-linejoin="round"/>
    <path d="M11 15h2M19 15h2" stroke="currentColor" stroke-width="2" stroke-linecap="round"/>
  </symbol>
  <symbol id="settings" viewBox="0 0 32 32">
    <path d="M16 11a5 5 0 1 0 0 10 5 5 0 0 0 0-10Z" fill="none" stroke="currentColor" stroke-width="2.1"/>
    <path d="M16 3v4M16 25v4M3 16h4M25 16h4M6.8 6.8l2.8 2.8M22.4 22.4l2.8 2.8M25.2 6.8l-2.8 2.8M9.6 22.4l-2.8 2.8" stroke="currentColor" stroke-width="2" stroke-linecap="round"/>
  </symbol>
  <symbol id="database" viewBox="0 0 32 32">
    <ellipse cx="16" cy="8" rx="10" ry="4" fill="none" stroke="currentColor" stroke-width="2.2"/>
    <path d="M6 8v15c0 2.2 4.5 4 10 4s10-1.8 10-4V8M6 15c0 2.2 4.5 4 10 4s10-1.8 10-4" fill="none" stroke="currentColor" stroke-width="2.2"/>
  </symbol>
  <symbol id="activity" viewBox="0 0 32 32">
    <path d="M3 17h6l3-8 6 15 4-7h7" fill="none" stroke="currentColor" stroke-width="2.4" stroke-linecap="round" stroke-linejoin="round"/>
  </symbol>
  <symbol id="shield" viewBox="0 0 32 32">
    <path d="M16 3 27 7v8c0 7-4.4 11.5-11 14C9.4 26.5 5 22 5 15V7z" fill="none" stroke="currentColor" stroke-width="2.2" stroke-linejoin="round"/>
    <path d="m11 16 3.4 3.4L22 12" fill="none" stroke="currentColor" stroke-width="2.2" stroke-linecap="round" stroke-linejoin="round"/>
  </symbol>
  <symbol id="warning" viewBox="0 0 32 32">
    <path d="M16 4 29 27H3z" fill="none" stroke="currentColor" stroke-width="2.2" stroke-linejoin="round"/>
    <path d="M16 12v7M16 24h.01" stroke="currentColor" stroke-width="2.4" stroke-linecap="round"/>
  </symbol>
  <symbol id="check" viewBox="0 0 32 32">
    <circle cx="16" cy="16" r="12" fill="none" stroke="currentColor" stroke-width="2.2"/>
    <path d="m10 16 4 4 8-9" fill="none" stroke="currentColor" stroke-width="2.2" stroke-linecap="round" stroke-linejoin="round"/>
  </symbol>
  <symbol id="building" viewBox="0 0 32 32">
    <path d="M6 27V9h9v18M15 27V5h11v22M3 27h26" fill="none" stroke="currentColor" stroke-width="2.2" stroke-linejoin="round"/>
    <path d="M10 13h2M10 18h2M19 10h3M19 15h3M19 20h3" stroke="currentColor" stroke-width="1.8" stroke-linecap="round"/>
  </symbol>
  <symbol id="fan" viewBox="0 0 32 32">
    <circle cx="16" cy="16" r="3" fill="none" stroke="currentColor" stroke-width="2"/>
    <path d="M16 13c1-6 7-8 10-4 1.8 2.5-.8 5.6-6.8 6.6M13.4 17.5c-5.7 2.6-10.6-.9-9.4-5.7.8-3 4.9-3.3 8.6 1.8M18.6 17.5c4.7 4.2 3.5 10.1-1.3 11.1-3 .6-5.2-2.9-2.9-8.4" fill="none" stroke="currentColor" stroke-width="2" stroke-linejoin="round"/>
  </symbol>
  <symbol id="cloud" viewBox="0 0 32 32">
    <path d="M9 24h14a6 6 0 0 0 .8-11.9A8 8 0 0 0 8.5 10 7 7 0 0 0 9 24Z" fill="none" stroke="currentColor" stroke-width="2.2" stroke-linejoin="round"/>
  </symbol>
  <symbol id="zap" viewBox="0 0 32 32">
    <path d="M18 2 7 18h8l-1 12 11-17h-8z" fill="none" stroke="currentColor" stroke-width="2.2" stroke-linejoin="round"/>
  </symbol>
  <symbol id="bell" viewBox="0 0 32 32">
    <path d="M8 23h16l-2-4v-6a6 6 0 0 0-12 0v6z" fill="none" stroke="currentColor" stroke-width="2.2" stroke-linejoin="round"/>
    <path d="M13 26a3 3 0 0 0 6 0" fill="none" stroke="currentColor" stroke-width="2.2" stroke-linecap="round"/>
  </symbol>
  <symbol id="badge" viewBox="0 0 32 32">
    <path d="m16 3 3.4 3.1 4.6-.1 1.2 4.4 3.8 2.6-1.8 4.2 1.2 4.4-4.2 1.8-2.6 3.8-4.4-1.2-4.2 1.8-2.6-3.8-4.4-1.2 1.2-4.4L3 13l3.8-2.6L8 6l4.6.1z" fill="none" stroke="currentColor" stroke-width="2.1" stroke-linejoin="round"/>
    <path d="m11 16 3 3 7-7" fill="none" stroke="currentColor" stroke-width="2.1" stroke-linecap="round" stroke-linejoin="round"/>
  </symbol>
  <symbol id="mine-producing" viewBox="0 0 32 32">
    <path d="M5 26h22M8 26V13l8-5 8 5v13M12 26v-7h8v7" fill="none" stroke="currentColor" stroke-width="2.2" stroke-linecap="round" stroke-linejoin="round"/>
    <path d="M11 15h3M18 15h3" fill="none" stroke="currentColor" stroke-width="1.8" stroke-linecap="round"/>
    <path d="M23 6v5M20.5 8.5h5" fill="none" stroke="currentColor" stroke-width="2" stroke-linecap="round"/>
    <path d="M13 20h6v6h-6z" fill="currentColor" opacity=".18"/>
  </symbol>
  <symbol id="mine-building" viewBox="0 0 32 32">
    <path d="M4 26h24M7 26V16l5-4 5 4v10M17 26V9h7v17" fill="none" stroke="currentColor" stroke-width="2.2" stroke-linecap="round" stroke-linejoin="round"/>
    <path d="M10 18h3M10 22h3M20 13h2M20 17h2M20 21h2" fill="none" stroke="currentColor" stroke-width="1.7" stroke-linecap="round"/>
    <path d="M10 11V7M8 9h4" fill="none" stroke="currentColor" stroke-width="1.9" stroke-linecap="round"/>
  </symbol>
  <symbol id="mine-rectify" viewBox="0 0 32 32">
    <path d="M16 4 28 26H4Z" fill="currentColor" opacity=".12"/>
    <path d="M16 4 28 26H4Z" fill="none" stroke="currentColor" stroke-width="2.1" stroke-linecap="round" stroke-linejoin="round"/>
    <path d="M16 11v6" fill="none" stroke="currentColor" stroke-width="2.2" stroke-linecap="round"/>
    <path d="m10.5 22 3 3 7.5-8" fill="none" stroke="currentColor" stroke-width="2.2" stroke-linecap="round" stroke-linejoin="round"/>
  </symbol>
  <symbol id="mine-stop-keep" viewBox="0 0 32 32">
    <path d="M16 5a11 11 0 1 1 0 22 11 11 0 0 1 0-22Z" fill="none" stroke="currentColor" stroke-width="2.1"/>
    <path d="M10 10 22 22" fill="none" stroke="currentColor" stroke-width="2.3" stroke-linecap="round"/>
    <path d="M16 9v6l4 3" fill="none" stroke="currentColor" stroke-width="2" stroke-linecap="round" stroke-linejoin="round"/>
    <path d="M8 6 5 9M24 23l3 3" fill="none" stroke="currentColor" stroke-width="1.7" stroke-linecap="round" opacity=".65"/>
  </symbol>
  <symbol id="mine-sealed" viewBox="0 0 32 32">
    <path d="M9 15v-4a7 7 0 0 1 14 0v4" fill="none" stroke="currentColor" stroke-width="2.2" stroke-linecap="round" stroke-linejoin="round"/>
    <path d="M7 15h18v12H7z" fill="currentColor" opacity=".12"/>
    <path d="M7 15h18v12H7z" fill="none" stroke="currentColor" stroke-width="2.2" stroke-linejoin="round"/>
    <path d="m10 18 12 6M22 18l-12 6" fill="none" stroke="currentColor" stroke-width="1.7" stroke-linecap="round" opacity=".75"/>
    <path d="M16 19v4" fill="none" stroke="currentColor" stroke-width="2" stroke-linecap="round"/>
  </symbol>
  <symbol id="gas-flame" viewBox="0 0 32 32">
    <path d="M18 4c.6 4.2 5 5.8 5 10.5 0 7-4.4 12.5-7 12.5-4.2 0-7-3.3-7-7.4 0-4.8 3.2-7.1 5.7-10.5.3 2.1 1.5 3.6 3.1 4.7.9-3.2.8-6.5.2-10.3Z" fill="currentColor" opacity=".12"/>
    <path d="M18 4c.6 4.2 5 5.8 5 10.5 0 7-4.4 12.5-7 12.5-4.2 0-7-3.3-7-7.4 0-4.8 3.2-7.1 5.7-10.5.3 2.1 1.5 3.6 3.1 4.7.9-3.2.8-6.5.2-10.3Z" fill="none" stroke="currentColor" stroke-width="2.1" stroke-linecap="round" stroke-linejoin="round"/>
    <path d="M16 16c1.2 1.7 3.2 2.8 3.2 5a3.2 3.2 0 0 1-6.4 0c0-2 1.4-3.4 3.2-5Z" fill="none" stroke="currentColor" stroke-width="1.8" stroke-linejoin="round"/>
    <path d="M8 9c2.4 0 3.5 1.4 4.5 3.1M24 9c-2 .2-3.1 1.2-4 2.8" fill="none" stroke="currentColor" stroke-width="1.5" stroke-linecap="round" opacity=".6"/>
  </symbol>
  <symbol id="hydro-geology" viewBox="0 0 32 32">
    <path d="M5 23c4-3 8-3 12 0s7 3 10 0" fill="none" stroke="currentColor" stroke-width="2" stroke-linecap="round" stroke-linejoin="round"/>
    <path d="M6 10h13M7 15h9M8 20h6" fill="none" stroke="currentColor" stroke-width="2.1" stroke-linecap="round"/>
    <path d="M24 7c2.4 3.1 3.2 4.7 3.2 6.5a3.2 3.2 0 1 1-6.4 0c0-1.8.8-3.4 3.2-6.5Z" fill="currentColor" opacity=".12"/>
    <path d="M24 7c2.4 3.1 3.2 4.7 3.2 6.5a3.2 3.2 0 1 1-6.4 0c0-1.8.8-3.4 3.2-6.5Z" fill="none" stroke="currentColor" stroke-width="1.9" stroke-linejoin="round"/>
  </symbol>
  <symbol id="coal-output" viewBox="0 0 32 32">
    <path d="M6 25h20" fill="none" stroke="currentColor" stroke-width="2.2" stroke-linecap="round"/>
    <path d="M7 24c.6-5.4 4.8-9 10-9h8v5a5 5 0 0 1-5 5H9c-1.2 0-2-.5-2-1Z" fill="currentColor" opacity=".12"/>
    <path d="M7 24c.6-5.4 4.8-9 10-9h8v5a5 5 0 0 1-5 5H9c-1.2 0-2-.5-2-1Z" fill="none" stroke="currentColor" stroke-width="2.1" stroke-linejoin="round"/>
    <path d="m9 18 4-4 4 3 5-5" fill="none" stroke="currentColor" stroke-width="2" stroke-linecap="round" stroke-linejoin="round"/>
    <path d="M22 12h2v2" fill="none" stroke="currentColor" stroke-width="1.8" stroke-linecap="round"/>
  </symbol>
  <symbol id="capacity-gauge" viewBox="0 0 32 32">
    <path d="M6 22a10 10 0 0 1 20 0" fill="none" stroke="currentColor" stroke-width="2.2" stroke-linecap="round"/>
    <path d="M10 22a6 6 0 0 1 12 0" fill="none" stroke="currentColor" stroke-width="1.7" stroke-linecap="round" opacity=".6"/>
    <path d="M16 19 22 12" fill="none" stroke="currentColor" stroke-width="2.2" stroke-linecap="round"/>
    <path d="M13 25h6M8 25h16" fill="none" stroke="currentColor" stroke-width="2" stroke-linecap="round"/>
    <path d="M9 22h2M21 22h2M16 12v2" fill="none" stroke="currentColor" stroke-width="1.6" stroke-linecap="round" opacity=".75"/>
  </symbol>
  <symbol id="underground-worker" viewBox="0 0 32 32">
    <path d="M10 14a6 6 0 0 1 12 0v2H10Z" fill="currentColor" opacity=".12"/>
    <path d="M10 14a6 6 0 0 1 12 0v2H10Z" fill="none" stroke="currentColor" stroke-width="2.1" stroke-linejoin="round"/>
    <path d="M13 12h6M9 16h14" fill="none" stroke="currentColor" stroke-width="1.9" stroke-linecap="round"/>
    <path d="M16 16v4M8 27c1.7-5.2 14.3-5.2 16 0" fill="none" stroke="currentColor" stroke-width="2.1" stroke-linecap="round"/>
    <path d="M12 22h8" fill="none" stroke="currentColor" stroke-width="1.7" stroke-linecap="round" opacity=".7"/>
  </symbol>
  <symbol id="data-catalog" viewBox="0 0 32 32">
    <path d="M7 7h8v8H7zM17 7h8v8h-8zM7 17h8v8H7zM17 17h8v8h-8z" fill="none" stroke="currentColor" stroke-width="2" stroke-linejoin="round"/>
    <path d="M10 11h2M20 11h2M10 21h2M20 21h2" fill="none" stroke="currentColor" stroke-width="1.6" stroke-linecap="round"/>
    <path d="M7 7h8v8H7zM17 17h8v8h-8z" fill="currentColor" opacity=".1"/>
  </symbol>
  <symbol id="data-basic" viewBox="0 0 32 32">
    <path d="M7 6h18v20H7z" fill="currentColor" opacity=".1"/>
    <path d="M7 6h18v20H7z" fill="none" stroke="currentColor" stroke-width="2.1" stroke-linejoin="round"/>
    <path d="M11 11h10M11 16h10M11 21h6" fill="none" stroke="currentColor" stroke-width="1.9" stroke-linecap="round"/>
    <path d="M22 6v20" fill="none" stroke="currentColor" stroke-width="1.5" opacity=".55"/>
  </symbol>
  <symbol id="data-labor" viewBox="0 0 32 32">
    <path d="M12 8a4 4 0 1 1 0 8 4 4 0 0 1 0-8Z" fill="none" stroke="currentColor" stroke-width="2"/>
    <path d="M22 10a3 3 0 1 1 0 6 3 3 0 0 1 0-6Z" fill="none" stroke="currentColor" stroke-width="1.8" opacity=".8"/>
    <path d="M5.5 25c1.4-5.2 11.6-5.2 13 0M18 24c.8-3.3 7-3.4 8.5 0" fill="none" stroke="currentColor" stroke-width="2" stroke-linecap="round"/>
    <path d="M9 20h6" fill="none" stroke="currentColor" stroke-width="1.6" stroke-linecap="round" opacity=".7"/>
  </symbol>
  <symbol id="data-disaster" viewBox="0 0 32 32">
    <path d="M5 23c3.7-2.4 7.6-2.2 11 .5 3.4-3.9 6-7.3 8-13.5" fill="none" stroke="currentColor" stroke-width="2.1" stroke-linecap="round" stroke-linejoin="round"/>
    <path d="m18.5 11 5.5-1 1 5.5" fill="none" stroke="currentColor" stroke-width="2.1" stroke-linecap="round" stroke-linejoin="round"/>
    <path d="M7 13h5l2 4 3-7 2 4h3" fill="none" stroke="currentColor" stroke-width="1.7" stroke-linecap="round" stroke-linejoin="round" opacity=".75"/>
  </symbol>
  <symbol id="data-monitor" viewBox="0 0 32 32">
    <path d="M5 24h22" fill="none" stroke="currentColor" stroke-width="2.1" stroke-linecap="round"/>
    <path d="M8 21V9M16 21V12M24 21v-6" fill="none" stroke="currentColor" stroke-width="2.1" stroke-linecap="round"/>
    <path d="M8 12c2.5-2 5.3-2 8.5.8 2.3 2 4.9 1.9 7.5-.8" fill="none" stroke="currentColor" stroke-width="1.8" stroke-linecap="round" stroke-linejoin="round"/>
    <path d="M8 21h16v3H8z" fill="currentColor" opacity=".1"/>
  </symbol>
  <symbol id="data-production" viewBox="0 0 32 32">
    <path d="M6 25h20" fill="none" stroke="currentColor" stroke-width="2.1" stroke-linecap="round"/>
    <path d="M8 21l5-5 4 3 7-8" fill="none" stroke="currentColor" stroke-width="2.2" stroke-linecap="round" stroke-linejoin="round"/>
    <path d="M22 11h2v2" fill="none" stroke="currentColor" stroke-width="2" stroke-linecap="round"/>
    <path d="M9 13h3M9 17h2M19 23v-4M14 23v-2M24 23v-8" fill="none" stroke="currentColor" stroke-width="1.6" stroke-linecap="round" opacity=".7"/>
  </symbol>
  <symbol id="data-accident" viewBox="0 0 32 32">
    <path d="M16 4 28 26H4Z" fill="currentColor" opacity=".12"/>
    <path d="M16 4 28 26H4Z" fill="none" stroke="currentColor" stroke-width="2.1" stroke-linejoin="round"/>
    <path d="M16 11v7" fill="none" stroke="currentColor" stroke-width="2.2" stroke-linecap="round"/>
    <path d="M16 22h.01" fill="none" stroke="currentColor" stroke-width="2.8" stroke-linecap="round"/>
    <path d="M9 25h14" fill="none" stroke="currentColor" stroke-width="1.6" stroke-linecap="round" opacity=".65"/>
  </symbol>
</svg>
