<svg xmlns="http://www.w3.org/2000/svg" width="640" height="360" viewBox="0 0 640 360" preserveAspectRatio="none">
  <defs>
    <linearGradient id="edge" x1="0" x2="1" y1="0" y2="1">
      <stop offset="0" stop-color="#5cecff" stop-opacity=".98"/>
      <stop offset=".44" stop-color="#1ea8ff" stop-opacity=".58"/>
      <stop offset="1" stop-color="#3bdcff" stop-opacity=".86"/>
    </linearGradient>
    <linearGradient id="glow" x1="0" x2="1">
      <stop offset="0" stop-color="#2ae7ff" stop-opacity=".9"/>
      <stop offset=".38" stop-color="#2ae7ff" stop-opacity=".06"/>
      <stop offset=".72" stop-color="#2ae7ff" stop-opacity=".06"/>
      <stop offset="1" stop-color="#2ae7ff" stop-opacity=".9"/>
    </linearGradient>
    <filter id="soft-glow" x="-8%" y="-12%" width="116%" height="124%">
      <feGaussianBlur stdDeviation="2.2" result="blur"/>
      <feMerge>
        <feMergeNode in="blur"/>
        <feMergeNode in="SourceGraphic"/>
      </feMerge>
    </filter>
  </defs>
  <path d="M16 1 H624 L639 16 V344 L624 359 H16 L1 344 V16 Z" fill="none" stroke="url(#edge)" stroke-width="1.6" filter="url(#soft-glow)"/>
  <path d="M28 9 H612 M9 28 V332 M631 28 V332 M28 351 H612" fill="none" stroke="#1acfff" stroke-opacity=".22" stroke-width="1"/>
  <path d="M24 7 H156 L174 17 H506 L524 7 H616" fill="none" stroke="url(#glow)" stroke-width="2"/>
  <path d="M28 353 H158 L172 343 H506 L520 353 H612" fill="none" stroke="#2deaff" stroke-opacity=".42" stroke-width="1"/>
  <path d="M10 48 H18 V18 H48 M592 18 H622 V48 M622 312 V342 H592 M48 342 H18 V312" fill="none" stroke="#66f4ff" stroke-opacity=".74" stroke-width="2"/>
  <path d="M552 9 H626 V15 H552 Z" fill="#28e7ff" opacity=".42"/>
  <path d="M14 10 H70" stroke="#28e7ff" stroke-opacity=".55" stroke-width="3"/>
</svg>
